<svg id="图层_1" data-name="图层 1" xmlns="http://www.w3.org/2000/svg" viewBox="0 0 265 105">
  <defs>
    <style>.cls-1{fill:#6db33f;}</style>
  </defs>
  <title>jcohy</title>
  <path class="cls-1"
        d="M545.32,439q-10.86,0-16-6.52T526,414.55h5.66q-1.47,9,2.49,14.1t12.11,5.12a19.23,19.23,0,0,0,13.63-5.12q5.49-5.13,6.85-14l8.6-56.38H554.15l.9-5.47h26.82l-9.5,61.85q-1.82,11.29-9.06,17.82T545.32,439Z"
        transform="translate(-525.5 -349.82)"/>
  <path class="cls-1"
        d="M601.25,436q-10.31,0-15.28-6.34t-3.39-16.95l3.06-19.81a29.93,29.93,0,0,1,4.63-12.28,24.66,24.66,0,0,1,9-8.1,25.8,25.8,0,0,1,12.28-2.91q10.29,0,15.44,6t3.57,16.13H624.9q1.25-7.92-2.6-12.35T610.64,375a18.51,18.51,0,0,0-12.9,4.71q-5.21,4.72-6.45,13.22l-3,19.81q-1.25,8.38,2.49,13.16c2.49,3.18,6.29,4.78,11.43,4.78a19,19,0,0,0,13-4.49,19.88,19.88,0,0,0,6.4-12.29h5.65Q625.59,424,618.56,430T601.25,436Z"
        transform="translate(-525.5 -349.82)"/>
  <path class="cls-1"
        d="M653.94,438q-10,0-15-6.34t-3.45-16.95l3.06-19.81a29.94,29.94,0,0,1,4.64-12.28,24.64,24.64,0,0,1,8.94-8.1,25.2,25.2,0,0,1,12.1-2.91q10.08,0,15,6.35t3.4,16.94l-3.06,19.81Q678,425.31,671,431.67A24.55,24.55,0,0,1,653.94,438Zm.79-5.12a17.89,17.89,0,0,0,12.84-4.78q5-4.77,6.39-13.39L677,394.91q1.35-8.61-2.26-13.39t-11.32-4.78a18,18,0,0,0-12.79,4.78q-5.08,4.77-6.45,13.39l-3.05,19.81q-1.36,8.61,2.21,13.39T654.73,432.89Z"
        transform="translate(-525.5 -349.82)"/>
  <path class="cls-1"
        d="M683.56,434.85l13.12-85h5.66l-2.72,17.47-2,12.81H698a19,19,0,0,1,7.47-7.69,21.88,21.88,0,0,1,11.09-2.79q9.17,0,13.75,6.06t3,16.42l-6.56,42.75h-5.66l6.45-41.94q1.36-8.61-2.09-13.45t-10.81-4.83a17.61,17.61,0,0,0-12.61,4.89q-5.16,4.89-6.4,13.39l-6.45,41.94Z"
        transform="translate(-525.5 -349.82)"/>
  <path class="cls-1"
        d="M741.62,454.82l.9-5.25h16.41q13.58,0,15.84-14L775.9,428l1.7-11a20,20,0,0,1-7.52,8.86,21.13,21.13,0,0,1-11.72,3.26q-9.17,0-13.75-6.12t-3-16.36l5.65-36.93h5.66l-5.54,36.11q-1.36,8.63,2.15,13.46t10.75,4.83a17.61,17.61,0,0,0,12.61-4.89q5.16-4.89,6.4-13.4l5.54-36.11h5.66L780.43,435.6q-3.06,19.22-22.41,19.22Z"
        transform="translate(-525.5 -349.82)"/>
</svg>
