<svg xmlns="http://www.w3.org/2000/svg" viewBox="0 0 16 208">
  <title>Octicons</title>
  <desc>Octicons by GitHub - https://primer.style/octicons/ - License: MIT</desc>
  <metadata
    xmlns:dc="http://purl.org/dc/elements/1.1/"
    xmlns:cc="http://creativecommons.org/ns#"
    xmlns:rdf="http://www.w3.org/1999/02/22-rdf-syntax-ns#">
    <rdf:RDF>
      <cc:Work rdf:about="">
        <dc:title>@primer/octicons</dc:title>
        <dc:description>A scalable set of icons handcrafted with &lt;3 by GitHub</dc:description>
        <dc:format>image/svg+xml</dc:format>
        <dc:creator>
          <cc:Agent>
            <dc:title>GitHub</dc:title>
          </cc:Agent>
        </dc:creator>
        <dc:rights>
          <cc:Agent>
            <dc:title>Copyright (c) GitHub Inc.</dc:title>
          </cc:Agent>
        </dc:rights>
        <cc:license rdf:resource="https://opensource.org/licenses/MIT" />
        <dc:relation>https://primer.style/octicons/</dc:relation>
      </cc:Work>
    </rdf:RDF>
  </metadata>

  <symbol id="icon-alert" viewBox="0 0 16 16">
        <path d="M6.457 1.047c.659-1.234 2.427-1.234 3.086 0l6.082 11.378A1.75 1.75 0 0 1 14.082 15H1.918a1.75 1.75 0 0 1-1.543-2.575Zm1.763.707a.25.25 0 0 0-.44 0L1.698 13.132a.25.25 0 0 0 .22.368h12.164a.25.25 0 0 0 .22-.368Zm.53 3.996v2.5a.75.75 0 0 1-1.5 0v-2.5a.75.75 0 0 1 1.5 0ZM9 11a1 1 0 1 1-2 0 1 1 0 0 1 2 0Z"></path>
  </symbol>
  <use href="#icon-alert" width="16" height="16" x="0" y="0" />
  <view id="view-alert" viewBox="0 0 16 16" />

  <symbol id="icon-book" viewBox="0 0 16 16">
        <path d="M0 1.75A.75.75 0 0 1 .75 1h4.253c1.227 0 2.317.59 3 1.501A3.743 3.743 0 0 1 11.006 1h4.245a.75.75 0 0 1 .75.75v10.5a.75.75 0 0 1-.75.75h-4.507a2.25 2.25 0 0 0-1.591.659l-.622.621a.75.75 0 0 1-1.06 0l-.622-.621A2.25 2.25 0 0 0 5.258 13H.75a.75.75 0 0 1-.75-.75Zm7.251 10.324.004-5.073-.002-2.253A2.25 2.25 0 0 0 5.003 2.5H1.5v9h3.757a3.75 3.75 0 0 1 1.994.574ZM8.755 4.75l-.004 7.322a3.752 3.752 0 0 1 1.992-.572H14.5v-9h-3.495a2.25 2.25 0 0 0-2.25 2.25Z"></path>
  </symbol>
  <use href="#icon-book" width="16" height="16" x="0" y="16" />
  <view id="view-book" viewBox="0 16 16 16" />

  <symbol id="icon-chevron-down" viewBox="0 0 16 16">
        <path d="M12.78 5.22a.749.749 0 0 1 0 1.06l-4.25 4.25a.749.749 0 0 1-1.06 0L3.22 6.28a.749.749 0 1 1 1.06-1.06L8 8.939l3.72-3.719a.749.749 0 0 1 1.06 0Z"></path>
  </symbol>
  <use href="#icon-chevron-down" width="16" height="16" x="0" y="32" />
  <view id="view-chevron-down" viewBox="0 32 16 16" />

  <symbol id="icon-chevron-left" viewBox="0 0 16 16">
        <path d="M9.78 12.78a.75.75 0 0 1-1.06 0L4.47 8.53a.75.75 0 0 1 0-1.06l4.25-4.25a.751.751 0 0 1 1.042.018.751.751 0 0 1 .018 1.042L6.06 8l3.72 3.72a.75.75 0 0 1 0 1.06Z"></path>
  </symbol>
  <use href="#icon-chevron-left" width="16" height="16" x="0" y="48" />
  <view id="view-chevron-left" viewBox="0 48 16 16" />

  <symbol id="icon-copy" viewBox="0 0 16 16">
        <path d="M0 6.75C0 5.784.784 5 1.75 5h1.5a.75.75 0 0 1 0 1.5h-1.5a.25.25 0 0 0-.25.25v7.5c0 .138.112.25.25.25h7.5a.25.25 0 0 0 .25-.25v-1.5a.75.75 0 0 1 1.5 0v1.5A1.75 1.75 0 0 1 9.25 16h-7.5A1.75 1.75 0 0 1 0 14.25Z"></path><path d="M5 1.75C5 .784 5.784 0 6.75 0h7.5C15.216 0 16 .784 16 1.75v7.5A1.75 1.75 0 0 1 14.25 11h-7.5A1.75 1.75 0 0 1 5 9.25Zm1.75-.25a.25.25 0 0 0-.25.25v7.5c0 .138.112.25.25.25h7.5a.25.25 0 0 0 .25-.25v-7.5a.25.25 0 0 0-.25-.25Z"></path>
  </symbol>
  <use href="#icon-copy" width="16" height="16" x="0" y="64" />
  <view id="view-copy" viewBox="0 64 16 16" />

  <symbol id="icon-flame" viewBox="0 0 16 16">
        <path d="M9.533.753V.752c.217 2.385 1.463 3.626 2.653 4.81C13.37 6.74 14.498 7.863 14.498 10c0 3.5-3 6-6.5 6S1.5 13.512 1.5 10c0-1.298.536-2.56 1.425-3.286.376-.308.862 0 1.035.454C4.46 8.487 5.581 8.419 6 8c.282-.282.341-.811-.003-1.5C4.34 3.187 7.035.75 8.77.146c.39-.137.726.194.763.607ZM7.998 14.5c2.832 0 5-1.98 5-4.5 0-1.463-.68-2.19-1.879-3.383l-.036-.037c-1.013-1.008-2.3-2.29-2.834-4.434-.322.256-.63.579-.864.953-.432.696-.621 1.58-.046 2.73.473.947.67 2.284-.278 3.232-.61.61-1.545.84-2.403.633a2.79 2.79 0 0 1-1.436-.874A3.198 3.198 0 0 0 3 10c0 2.53 2.164 4.5 4.998 4.5Z"></path>
  </symbol>
  <use href="#icon-flame" width="16" height="16" x="0" y="80" />
  <view id="view-flame" viewBox="0 80 16 16" />

  <symbol id="icon-fold" viewBox="0 0 16 16">
        <path d="M10.896 2H8.75V.75a.75.75 0 0 0-1.5 0V2H5.104a.25.25 0 0 0-.177.427l2.896 2.896a.25.25 0 0 0 .354 0l2.896-2.896A.25.25 0 0 0 10.896 2ZM8.75 15.25a.75.75 0 0 1-1.5 0V14H5.104a.25.25 0 0 1-.177-.427l2.896-2.896a.25.25 0 0 1 .354 0l2.896 2.896a.25.25 0 0 1-.177.427H8.75v1.25Zm-6.5-6.5a.75.75 0 0 0 0-1.5h-.5a.75.75 0 0 0 0 1.5h.5ZM6 8a.75.75 0 0 1-.75.75h-.5a.75.75 0 0 1 0-1.5h.5A.75.75 0 0 1 6 8Zm2.25.75a.75.75 0 0 0 0-1.5h-.5a.75.75 0 0 0 0 1.5h.5ZM12 8a.75.75 0 0 1-.75.75h-.5a.75.75 0 0 1 0-1.5h.5A.75.75 0 0 1 12 8Zm2.25.75a.75.75 0 0 0 0-1.5h-.5a.75.75 0 0 0 0 1.5h.5Z"></path>
  </symbol>
  <use href="#icon-fold" width="16" height="16" x="0" y="96" />
  <view id="view-fold" viewBox="0 96 16 16" />

  <symbol id="icon-home" viewBox="0 0 16 16">
        <path d="M6.906.664a1.749 1.749 0 0 1 2.187 0l5.25 4.2c.415.332.657.835.657 1.367v7.019A1.75 1.75 0 0 1 13.25 15h-3.5a.75.75 0 0 1-.75-.75V9H7v5.25a.75.75 0 0 1-.75.75h-3.5A1.75 1.75 0 0 1 1 13.25V6.23c0-.531.242-1.034.657-1.366l5.25-4.2Zm1.25 1.171a.25.25 0 0 0-.312 0l-5.25 4.2a.25.25 0 0 0-.094.196v7.019c0 .138.112.25.25.25H5.5V8.25a.75.75 0 0 1 .75-.75h3.5a.75.75 0 0 1 .75.75v5.25h2.75a.25.25 0 0 0 .25-.25V6.23a.25.25 0 0 0-.094-.195Z"></path>
  </symbol>
  <use href="#icon-home" width="16" height="16" x="0" y="112" />
  <view id="view-home" viewBox="0 112 16 16" />

  <symbol id="icon-info" viewBox="0 0 16 16">
        <path d="M0 8a8 8 0 1 1 16 0A8 8 0 0 1 0 8Zm8-6.5a6.5 6.5 0 1 0 0 13 6.5 6.5 0 0 0 0-13ZM6.5 7.75A.75.75 0 0 1 7.25 7h1a.75.75 0 0 1 .75.75v2.75h.25a.75.75 0 0 1 0 1.5h-2a.75.75 0 0 1 0-1.5h.25v-2h-.25a.75.75 0 0 1-.75-.75ZM8 6a1 1 0 1 1 0-2 1 1 0 0 1 0 2Z"></path>
  </symbol>
  <use href="#icon-info" width="16" height="16" x="0" y="128" />
  <view id="view-info" viewBox="0 128 16 16" />

  <symbol id="icon-law" viewBox="0 0 16 16">
        <path d="M8.75.75V2h.985c.304 0 .603.08.867.231l1.29.736c.038.022.08.033.124.033h2.234a.75.75 0 0 1 0 1.5h-.427l2.111 4.692a.75.75 0 0 1-.154.838l-.53-.53.529.531-.001.002-.002.002-.006.006-.006.005-.01.01-.045.04c-.21.176-.441.327-.686.45C14.556 10.78 13.88 11 13 11a4.498 4.498 0 0 1-2.023-.454 3.544 3.544 0 0 1-.686-.45l-.045-.04-.016-.015-.006-.006-.004-.004v-.001a.75.75 0 0 1-.154-.838L12.178 4.5h-.162c-.305 0-.604-.079-.868-.231l-1.29-.736a.245.245 0 0 0-.124-.033H8.75V13h2.5a.75.75 0 0 1 0 1.5h-6.5a.75.75 0 0 1 0-1.5h2.5V3.5h-.984a.245.245 0 0 0-.124.033l-1.289.737c-.265.15-.564.23-.869.23h-.162l2.112 4.692a.75.75 0 0 1-.154.838l-.53-.53.529.531-.001.002-.002.002-.006.006-.016.015-.045.04c-.21.176-.441.327-.686.45C4.556 10.78 3.88 11 3 11a4.498 4.498 0 0 1-2.023-.454 3.544 3.544 0 0 1-.686-.45l-.045-.04-.016-.015-.006-.006-.004-.004v-.001a.75.75 0 0 1-.154-.838L2.178 4.5H1.75a.75.75 0 0 1 0-1.5h2.234a.249.249 0 0 0 .125-.033l1.288-.737c.265-.15.564-.23.869-.23h.984V.75a.75.75 0 0 1 1.5 0Zm2.945 8.477c.285.135.718.273 1.305.273s1.02-.138 1.305-.273L13 6.327Zm-10 0c.285.135.718.273 1.305.273s1.02-.138 1.305-.273L3 6.327Z"></path>
  </symbol>
  <use href="#icon-law" width="16" height="16" x="0" y="144" />
  <view id="view-law" viewBox="0 144 16 16" />

  <symbol id="icon-light-bulb" viewBox="0 0 16 16">
        <path d="M8 1.5c-2.363 0-4 1.69-4 3.75 0 .984.424 1.625.984 2.304l.214.253c.223.264.47.556.673.848.284.411.537.896.621 1.49a.75.75 0 0 1-1.484.211c-.04-.282-.163-.547-.37-.847a8.456 8.456 0 0 0-.542-.68c-.084-.1-.173-.205-.268-.32C3.201 7.75 2.5 6.766 2.5 5.25 2.5 2.31 4.863 0 8 0s5.5 2.31 5.5 5.25c0 1.516-.701 2.5-1.328 3.259-.095.115-.184.22-.268.319-.207.245-.383.453-.541.681-.208.3-.33.565-.37.847a.751.751 0 0 1-1.485-.212c.084-.593.337-1.078.621-1.489.203-.292.45-.584.673-.848.075-.088.147-.173.213-.253.561-.679.985-1.32.985-2.304 0-2.06-1.637-3.75-4-3.75ZM5.75 12h4.5a.75.75 0 0 1 0 1.5h-4.5a.75.75 0 0 1 0-1.5ZM6 15.25a.75.75 0 0 1 .75-.75h2.5a.75.75 0 0 1 0 1.5h-2.5a.75.75 0 0 1-.75-.75Z"></path>
  </symbol>
  <use href="#icon-light-bulb" width="16" height="16" x="0" y="160" />
  <view id="view-light-bulb" viewBox="0 160 16 16" />

  <symbol id="icon-link-external" viewBox="0 0 16 16">
        <path d="M3.75 2h3.5a.75.75 0 0 1 0 1.5h-3.5a.25.25 0 0 0-.25.25v8.5c0 .138.112.25.25.25h8.5a.25.25 0 0 0 .25-.25v-3.5a.75.75 0 0 1 1.5 0v3.5A1.75 1.75 0 0 1 12.25 14h-8.5A1.75 1.75 0 0 1 2 12.25v-8.5C2 2.784 2.784 2 3.75 2Zm6.854-1h4.146a.25.25 0 0 1 .25.25v4.146a.25.25 0 0 1-.427.177L13.03 4.03 9.28 7.78a.751.751 0 0 1-1.042-.018.751.751 0 0 1-.018-1.042l3.75-3.75-1.543-1.543A.25.25 0 0 1 10.604 1Z"></path>
  </symbol>
  <use href="#icon-link-external" width="16" height="16" x="0" y="176" />
  <view id="view-link-external" viewBox="0 176 16 16" />

  <symbol id="icon-moon" viewBox="0 0 16 16">
        <path d="M9.598 1.591a.749.749 0 0 1 .785-.175 7.001 7.001 0 1 1-8.967 8.967.75.75 0 0 1 .961-.96 5.5 5.5 0 0 0 7.046-7.046.75.75 0 0 1 .175-.786Zm1.616 1.945a7 7 0 0 1-7.678 7.678 5.499 5.499 0 1 0 7.678-7.678Z"></path>
  </symbol>
  <use href="#icon-moon" width="16" height="16" x="0" y="192" />
  <view id="view-moon" viewBox="0 192 16 16" />

  <symbol id="icon-question" viewBox="0 0 16 16">
        <path d="M0 8a8 8 0 1 1 16 0A8 8 0 0 1 0 8Zm8-6.5a6.5 6.5 0 1 0 0 13 6.5 6.5 0 0 0 0-13ZM6.92 6.085h.001a.749.749 0 1 1-1.342-.67c.169-.339.436-.701.849-.977C6.845 4.16 7.369 4 8 4a2.756 2.756 0 0 1 1.637.525c.503.377.863.965.863 1.725 0 .448-.115.83-.329 1.15-.205.307-.47.513-.692.662-.109.072-.22.138-.313.195l-.006.004a6.24 6.24 0 0 0-.26.16.952.952 0 0 0-.276.245.75.75 0 0 1-1.248-.832c.184-.264.42-.489.692-.661.103-.067.207-.132.313-.195l.007-.004c.1-.061.182-.11.258-.161a.969.969 0 0 0 .277-.245C8.96 6.514 9 6.427 9 6.25a.612.612 0 0 0-.262-.525A1.27 1.27 0 0 0 8 5.5c-.369 0-.595.09-.74.187a1.01 1.01 0 0 0-.34.398ZM9 11a1 1 0 1 1-2 0 1 1 0 0 1 2 0Z"></path>
  </symbol>
  <use href="#icon-question" width="16" height="16" x="0" y="208" />
  <view id="view-question" viewBox="0 208 16 16" />

  <symbol id="icon-rocket" viewBox="0 0 16 16">
        <path d="M14.064 0h.186C15.216 0 16 .784 16 1.75v.186a8.752 8.752 0 0 1-2.564 6.186l-.458.459c-.314.314-.641.616-.979.904v3.207c0 .608-.315 1.172-.833 1.49l-2.774 1.707a.749.749 0 0 1-1.11-.418l-.954-3.102a1.214 1.214 0 0 1-.145-.125L3.754 9.816a1.218 1.218 0 0 1-.124-.145L.528 8.717a.749.749 0 0 1-.418-1.11l1.71-2.774A1.748 1.748 0 0 1 3.31 4h3.204c.288-.338.59-.665.904-.979l.459-.458A8.749 8.749 0 0 1 14.064 0ZM8.938 3.623h-.002l-.458.458c-.76.76-1.437 1.598-2.02 2.5l-1.5 2.317 2.143 2.143 2.317-1.5c.902-.583 1.74-1.26 2.499-2.02l.459-.458a7.25 7.25 0 0 0 2.123-5.127V1.75a.25.25 0 0 0-.25-.25h-.186a7.249 7.249 0 0 0-5.125 2.123ZM3.56 14.56c-.732.732-2.334 1.045-3.005 1.148a.234.234 0 0 1-.201-.064.234.234 0 0 1-.064-.201c.103-.671.416-2.273 1.15-3.003a1.502 1.502 0 1 1 2.12 2.12Zm6.94-3.935c-.088.06-.177.118-.266.175l-2.35 1.521.548 1.783 1.949-1.2a.25.25 0 0 0 .119-.213ZM3.678 8.116 5.2 5.766c.058-.09.117-.178.176-.266H3.309a.25.25 0 0 0-.213.119l-1.2 1.95ZM12 5a1 1 0 1 1-2 0 1 1 0 0 1 2 0Z"></path>
  </symbol>
  <use href="#icon-rocket" width="16" height="16" x="0" y="224" />
  <view id="view-rocket" viewBox="0 224 16 16" />

  <symbol id="icon-search" viewBox="0 0 16 16">
        <path d="M10.68 11.74a6 6 0 0 1-7.922-8.982 6 6 0 0 1 8.982 7.922l3.04 3.04a.749.749 0 0 1-.326 1.275.749.749 0 0 1-.734-.215ZM11.5 7a4.499 4.499 0 1 0-8.997 0A4.499 4.499 0 0 0 11.5 7Z"></path>
  </symbol>
  <use href="#icon-search" width="16" height="16" x="0" y="240" />
  <view id="view-search" viewBox="0 240 16 16" />

  <symbol id="icon-stop" viewBox="0 0 16 16">
        <path d="M4.47.22A.749.749 0 0 1 5 0h6c.199 0 .389.079.53.22l4.25 4.25c.141.14.22.331.22.53v6a.749.749 0 0 1-.22.53l-4.25 4.25A.749.749 0 0 1 11 16H5a.749.749 0 0 1-.53-.22L.22 11.53A.749.749 0 0 1 0 11V5c0-.199.079-.389.22-.53Zm.84 1.28L1.5 5.31v5.38l3.81 3.81h5.38l3.81-3.81V5.31L10.69 1.5ZM8 4a.75.75 0 0 1 .75.75v3.5a.75.75 0 0 1-1.5 0v-3.5A.75.75 0 0 1 8 4Zm0 8a1 1 0 1 1 0-2 1 1 0 0 1 0 2Z"></path>
  </symbol>
  <use href="#icon-stop" width="16" height="16" x="0" y="256" />
  <view id="view-stop" viewBox="0 256 16 16" />

  <symbol id="icon-sun" viewBox="0 0 16 16">
        <path d="M8 12a4 4 0 1 1 0-8 4 4 0 0 1 0 8Zm0-1.5a2.5 2.5 0 1 0 0-5 2.5 2.5 0 0 0 0 5Zm5.657-8.157a.75.75 0 0 1 0 1.061l-1.061 1.06a.749.749 0 0 1-1.275-.326.749.749 0 0 1 .215-.734l1.06-1.06a.75.75 0 0 1 1.06 0Zm-9.193 9.193a.75.75 0 0 1 0 1.06l-1.06 1.061a.75.75 0 1 1-1.061-1.06l1.06-1.061a.75.75 0 0 1 1.061 0ZM8 0a.75.75 0 0 1 .75.75v1.5a.75.75 0 0 1-1.5 0V.75A.75.75 0 0 1 8 0ZM3 8a.75.75 0 0 1-.75.75H.75a.75.75 0 0 1 0-1.5h1.5A.75.75 0 0 1 3 8Zm13 0a.75.75 0 0 1-.75.75h-1.5a.75.75 0 0 1 0-1.5h1.5A.75.75 0 0 1 16 8Zm-8 5a.75.75 0 0 1 .75.75v1.5a.75.75 0 0 1-1.5 0v-1.5A.75.75 0 0 1 8 13Zm3.536-1.464a.75.75 0 0 1 1.06 0l1.061 1.06a.75.75 0 0 1-1.06 1.061l-1.061-1.06a.75.75 0 0 1 0-1.061ZM2.343 2.343a.75.75 0 0 1 1.061 0l1.06 1.061a.751.751 0 0 1-.018 1.042.751.751 0 0 1-1.042.018l-1.06-1.06a.75.75 0 0 1 0-1.06Z"></path>
  </symbol>
  <use href="#icon-sun" width="16" height="16" x="0" y="272" />
  <view id="view-sun" viewBox="0 272 16 16" />

  <symbol id="icon-three-bars" viewBox="0 0 16 16">
        <path d="M1 2.75A.75.75 0 0 1 1.75 2h12.5a.75.75 0 0 1 0 1.5H1.75A.75.75 0 0 1 1 2.75Zm0 5A.75.75 0 0 1 1.75 7h12.5a.75.75 0 0 1 0 1.5H1.75A.75.75 0 0 1 1 7.75ZM1.75 12h12.5a.75.75 0 0 1 0 1.5H1.75a.75.75 0 0 1 0-1.5Z"></path>
  </symbol>
  <use href="#icon-three-bars" width="16" height="16" x="0" y="288" />
  <view id="view-three-bars" viewBox="0 288 16 16" />

  <symbol id="icon-unfold" viewBox="0 0 16 16">
        <path d="m8.177.677 2.896 2.896a.25.25 0 0 1-.177.427H8.75v1.25a.75.75 0 0 1-1.5 0V4H5.104a.25.25 0 0 1-.177-.427L7.823.677a.25.25 0 0 1 .354 0ZM7.25 10.75a.75.75 0 0 1 1.5 0V12h2.146a.25.25 0 0 1 .177.427l-2.896 2.896a.25.25 0 0 1-.354 0l-2.896-2.896A.25.25 0 0 1 5.104 12H7.25v-1.25Zm-5-2a.75.75 0 0 0 0-1.5h-.5a.75.75 0 0 0 0 1.5h.5ZM6 8a.75.75 0 0 1-.75.75h-.5a.75.75 0 0 1 0-1.5h.5A.75.75 0 0 1 6 8Zm2.25.75a.75.75 0 0 0 0-1.5h-.5a.75.75 0 0 0 0 1.5h.5ZM12 8a.75.75 0 0 1-.75.75h-.5a.75.75 0 0 1 0-1.5h.5A.75.75 0 0 1 12 8Zm2.25.75a.75.75 0 0 0 0-1.5h-.5a.75.75 0 0 0 0 1.5h.5Z"></path>
  </symbol>
  <use href="#icon-unfold" width="16" height="16" x="0" y="304" />
  <view id="view-unfold" viewBox="0 304 16 16" />

  <symbol id="icon-x" viewBox="0 0 16 16">
        <path d="M3.72 3.72a.75.75 0 0 1 1.06 0L8 6.94l3.22-3.22a.749.749 0 0 1 1.275.326.749.749 0 0 1-.215.734L9.06 8l3.22 3.22a.749.749 0 0 1-.326 1.275.749.749 0 0 1-.734-.215L8 9.06l-3.22 3.22a.751.751 0 0 1-1.042-.018.751.751 0 0 1-.018-1.042L6.94 8 3.72 4.78a.75.75 0 0 1 0-1.06Z"></path>
  </symbol>
  <use href="#icon-x" width="16" height="16" x="0" y="320" />
  <view id="view-x" viewBox="0 320 16 16" />

</svg>